# xmcd CD database file
#
# Track frame offsets:
#	150
#	21885
#	39915
#	57583
#	76496
#	96776
#	115226
#	131596
#	151247
#	173787
#
# Disc length: 2700 seconds
#
# Revision: 1
# Processed by: cddbd v1.5.2PL0 Copyright (c) Steve Scherf et al.
# Submitted via: CDex 1.70beta2
#
DISCID=790a8a0a
DTITLE=Larry Norman - Starstorm
DYEAR=1977
DGENRE=Classic Christian Rock
TTITLE0=I Don't Want to Lose You [Previously Unreleased]
TTITLE1=Fly Fly Fly [New Vocal Version]
TTITLE2=I've Got to Learn to Live Without You [Video Version]
TTITLE3=The Same Old Story [New Vocal Version]
TTITLE4=The Great American Novel
TTITLE5=Christmas Time [New Vocal Version]
TTITLE6=Pardon Me [New Vocal Version]
TTITLE7=Righteous Rocker #2 [Alternate Version]
TTITLE8=Be Careful What You Sign
TTITLE9=If God Is My Father [Previously Unreleased]
EXTD=YEAR: 1977
EXTT0=
EXTT1=
EXTT2=
EXTT3=
EXTT4=
EXTT5=
EXTT6=
EXTT7=
EXTT8=
EXTT9=
PLAYORDER=
